<?xml version="1.0" encoding="UTF-8" standalone="no"?>
<!DOCTYPE svg PUBLIC "-//W3C//DTD SVG 1.1//EN" "http://www.w3.org/Graphics/SVG/1.1/DTD/svg11.dtd">
<svg width="100%" height="100%" viewBox="0 0 348 336" version="1.1" xmlns="http://www.w3.org/2000/svg" xmlns:xlink="http://www.w3.org/1999/xlink" xml:space="preserve" xmlns:serif="http://www.serif.com/" style="fill-rule:evenodd;clip-rule:evenodd;stroke-linejoin:round;stroke-miterlimit:1.41421;">
    <g id="_-000000ff" serif:id="#000000ff">
        <path d="M165.32,0L166.59,0C175.78,3.18 185.54,0.8 194.98,1.63C209.64,3.99 224.41,7.11 237.75,13.88C235.56,18.75 233.63,23.75 231.29,28.55C230.13,23.27 229.32,17.92 228.23,12.62C224.13,15.44 220.18,18.48 216.12,21.34C214.39,17.03 212.75,12.69 210.99,8.39C207.47,11.59 204.02,14.86 200.54,18.11C197.92,14.02 195.45,9.83 192.9,5.69C189.8,9.38 186.81,13.17 183.76,16.92C180.81,13.21 177.84,9.51 174.9,5.79C172.37,9.36 169.95,13 167.31,16.49C164.03,13.04 160.74,9.6 157.4,6.22C155.29,10.26 153.24,14.32 151.14,18.36C147.03,16.07 142.94,13.76 138.84,11.47C137.24,15.25 135.76,19.09 134.23,22.9C129.45,19.78 124.67,16.67 119.86,13.6C117.77,19.63 115.85,25.72 113.82,31.77C108.84,29.87 103.85,27.99 98.85,26.14C97.76,31.1 96.82,36.08 95.78,41.05C91.05,39.55 86.33,38.01 81.61,36.47C81.13,41.86 80.91,47.27 80.62,52.67C75.8,52.14 70.96,51.67 66.13,51.24C66.22,56.83 66.57,62.41 66.71,67.99C61.27,67.43 55.84,66.8 50.39,66.37C51.41,72.93 52.56,79.46 53.62,86.02C49.23,87.32 44.82,88.57 40.43,89.91C41.77,94.6 43.16,99.28 44.53,103.97C39.41,107.14 34.24,110.23 29.12,113.4C31.59,117.57 34.15,121.69 36.62,125.87C33.1,128.45 29.56,131.02 26.1,133.68C28.32,138.06 30.46,142.47 32.61,146.88C29.17,150.52 25.74,154.17 22.31,157.82C25.87,159.9 29.44,161.95 33.03,163.99C29.69,167.98 26.32,171.94 23,175.95C26.52,178.19 30.04,180.43 33.54,182.71C31.21,186.76 28.91,190.83 26.66,194.92C30.56,197.61 34.5,200.23 38.4,202.92C36.43,206.73 34.5,210.56 32.49,214.35C36.8,216.79 41.6,218.27 45.78,220.94C44.31,225.38 42.55,229.72 41.02,234.14C44.92,235.09 48.83,235.97 52.73,236.92C51.19,240.35 49.66,243.79 48.13,247.23C52.43,247.43 56.73,247.66 61.04,247.92C59.69,251.36 58.37,254.8 57.08,258.25C60.75,258.58 64.42,258.82 68.1,259.09C68.2,262.91 68.2,266.73 68.19,270.56C71.24,270.25 74.28,269.85 77.32,269.47C76.79,272.67 76.21,275.86 75.7,279.06C79.46,278.51 83.2,277.78 86.94,277.03C86.9,280.03 86.85,283.04 86.8,286.04C90.75,285.27 94.68,284.38 98.63,283.64C96.52,288.69 94.32,293.71 92.17,298.74C89.57,297.71 86.95,296.7 84.34,295.67C78.8,293.67 74.34,289.68 69.41,286.58C62.39,281.62 54.91,277.25 48.54,271.43C45.25,268.41 41.52,265.84 38.52,262.51C36.32,259.36 34.63,255.85 31.98,253.04C20.89,240.7 14.04,225.32 7.79,210.14C5.41,205.03 5.37,199.3 4.44,193.84C3.75,187.57 1.99,181.33 2.8,174.99C3.84,165.31 3.66,155.47 5.8,145.93C7.43,137.96 8.49,129.82 11.39,122.17C16.25,106.62 21.81,91.27 28.42,76.37C34.76,65.38 40.85,53.96 50,45C60.35,35.68 72.32,28.47 84.04,21.06C96.89,15.4 110.2,10.79 123.68,6.86C130.97,4.67 138.36,2.58 145.95,1.76C152.43,1.63 158.98,1.58 165.32,0Z" style="fill:white;fill-rule:nonzero;"/>
        <path d="M151.74,20.31C153.78,16.41 155.74,12.46 157.78,8.56C161.01,11.93 164.25,15.28 167.48,18.66C170.14,15.28 172.48,11.66 174.96,8.14C177.92,11.81 180.8,15.54 183.82,19.15C186.76,15.46 189.7,11.76 192.72,8.13C195.22,12.16 197.63,16.25 200.14,20.27C203.68,17.23 206.97,13.91 210.47,10.81C212.13,15.08 213.7,19.39 215.55,23.58C219.45,20.72 223.34,17.86 227.22,14.97C228.19,19.9 229,24.85 230.01,29.77C215.42,25.19 200.46,20.54 185.02,20.63C172.08,21.73 159.16,23.32 146.32,25.28C137.27,28.12 128.3,31.24 119.35,34.38C113.27,37.48 106.8,40.09 101.54,44.54C95.37,49.38 89.21,54.25 82.81,58.79C78.6,61.54 75.9,65.88 72.58,69.54C68.24,74.92 63.23,79.82 59.87,85.92C56.37,92.1 51.77,97.74 49.54,104.57C47,111.74 43.6,118.63 42,126.1C40.41,132.75 38.5,139.31 37.06,145.99C35.87,156.61 35.75,167.33 35.7,178.01C36.89,185.05 38.58,192.01 39.98,199.01C41.66,205.87 44.27,212.45 46.28,219.21C42.29,217.53 38.38,215.65 34.45,213.84C36.33,210.02 38.33,206.26 40.19,202.42C36.28,199.74 32.32,197.14 28.48,194.36C30.87,190.35 33.18,186.29 35.36,182.16C31.95,179.94 28.47,177.82 25.1,175.54C28.46,171.57 31.9,167.67 35.09,163.56C31.61,161.51 28.09,159.53 24.57,157.55C27.73,153.96 31.14,150.61 34.33,147.05C32.14,142.73 30.05,138.36 27.88,134.03C31.45,131.44 35,128.83 38.51,126.16C36,122.07 33.55,117.96 31.02,113.89C36.07,110.79 41.15,107.73 46.19,104.63C44.9,100.03 43.56,95.44 42.14,90.88C46.52,89.57 50.94,88.38 55.28,86.96C54.18,80.63 53.14,74.28 52.08,67.94C57.46,68.42 62.81,69.11 68.19,69.54C68.09,63.97 67.79,58.41 67.6,52.85C72.35,53.22 77.09,53.79 81.85,54.16C82.32,48.92 82.5,43.66 82.89,38.42C87.54,39.89 92.16,41.45 96.83,42.88C97.97,37.95 98.85,32.98 99.92,28.04C104.86,29.9 109.76,31.87 114.76,33.56C116.68,27.65 118.69,21.77 120.53,15.83C125.44,18.71 130.08,22 134.94,24.95C136.48,21.12 137.97,17.27 139.58,13.46C143.61,15.79 147.66,18.08 151.74,20.31Z" style="fill:white;fill-rule:nonzero;"/>
        <path d="M259.88,30.16C260.6,28.34 261.69,26.69 262.68,25.01C276.1,32.04 287.53,42.19 298.09,52.93C302.71,58.39 305.92,64.93 310.82,70.16C313.95,73.12 316.78,76.41 318.69,80.31C321.74,86.44 326.71,91.42 329.25,97.82C336.27,113.99 341.45,130.92 345.8,147.99C348.04,155.65 347.33,163.71 348,171.57L348,186.48C348.1,195.47 346.27,204.46 342.64,212.69C340.17,219.34 337.37,225.87 334.21,232.21C324.6,248.27 313.95,263.7 302.53,278.52C297.07,284.38 291.74,290.38 285.99,295.96C279.46,301.44 273.06,307.1 266.4,312.41C260.12,316.26 253.37,319.3 246.96,322.93C241.6,326.13 235.28,326.76 229.37,328.37C220,330.25 210.55,332.02 200.96,332.25C194.29,332.75 187.64,330.98 180.98,331.91C176.31,332.58 171.84,330.7 167.34,329.79C155.37,327.38 144.18,322.33 132.64,318.46C126.9,316.77 122.15,313.05 117.13,309.95C118.48,307.72 119.63,305.34 121.31,303.33C124.16,301.65 127.43,300.85 130.52,299.72C131.45,303.1 132.4,306.48 133.39,309.86C136.29,307.66 139.16,305.43 142.04,303.22C143.2,307.06 144.29,310.94 145.51,314.77C148.57,311.82 151.56,308.81 154.64,305.87C155.29,309.2 155.95,312.52 156.69,315.83C160.19,313.34 163.7,310.87 167.21,308.39C169.26,311.43 171.28,314.49 173.35,317.53C175.48,314.46 177.51,311.31 179.61,308.23C182.28,311.55 184.92,314.9 187.68,318.14C189.59,314.93 191.47,311.7 193.34,308.46C196.37,311.07 199.38,313.72 202.46,316.28C205.16,312.35 207.79,308.36 210.6,304.5C214.82,306.94 219.09,309.28 223.31,311.71C225.39,307.89 227.33,303.99 229.31,300.12C233.76,301.74 238.21,303.37 242.69,304.92C244.68,300.68 246.61,296.41 248.6,292.16C252.46,293.71 256.32,295.26 260.2,296.74C261.55,291.74 262.74,286.69 264.05,281.68C267.8,283.32 271.52,285.02 275.26,286.7C276.32,281.81 277.19,276.88 278.14,271.97C282.99,271.03 287.86,270.26 292.72,269.38C292.86,265.02 292.8,260.67 292.85,256.31C297.68,255.97 302.5,255.55 307.31,255.1C306.95,249.09 306.33,243.11 305.95,237.1C310.56,235.45 315.18,233.84 319.77,232.13C318.21,227.82 316.66,223.51 315.11,219.2C321.1,216.25 327.11,213.31 333.04,210.23C329.31,206.22 325.73,202.07 322.01,198.05C326.69,194.97 331.34,191.84 336,188.73C332.84,185.05 329.57,181.48 326.36,177.86C330.5,174.41 334.7,171.03 338.86,167.6C334.9,164.59 330.85,161.69 326.82,158.77C330.23,154.99 333.72,151.29 337.13,147.52C332.7,144.55 328.25,141.63 323.8,138.69C327.5,133.5 331.32,128.38 334.99,123.16C329.68,121.07 324.35,119.01 319.02,116.97C321.21,113.52 323.39,110.07 325.62,106.65C321.38,104.57 317.08,102.64 312.79,100.66C314.81,96.58 316.91,92.53 318.99,88.47C314.25,87.72 309.5,87.07 304.75,86.44C306.13,82.34 307.61,78.27 308.99,74.17C304.27,73.78 299.54,73.65 294.82,73.41C296.06,68.76 297.37,64.13 298.6,59.49C293.75,59.76 288.92,60.21 284.08,60.57C284.94,56.88 285.75,53.17 286.54,49.46C281.83,49.57 277.13,49.85 272.43,49.98C273.3,46.05 274.23,42.14 275.09,38.2C270.34,39.01 265.64,40 260.92,40.92C260.58,37.33 259.85,33.77 259.88,30.16Z" style="fill:white;fill-rule:nonzero;"/>
        <path d="M253.62,40.18C255.23,37.57 256.71,34.88 258.44,32.35C258.97,35.76 259.2,39.21 259.68,42.63C264.19,41.77 268.69,40.82 273.21,39.99C272.38,43.83 271.43,47.64 270.61,51.48C275.33,51.37 280.04,51.07 284.77,50.99C283.92,54.71 283.08,58.43 282.39,62.18C287.15,61.84 291.9,61.39 296.66,61C295.5,65.58 294.2,70.12 292.98,74.68C297.68,75.04 302.4,75.18 307.11,75.38C305.64,79.42 304.24,83.49 302.81,87.54C307.48,88.3 312.17,88.9 316.86,89.57C314.81,93.45 312.87,97.38 310.81,101.25C315.01,103.33 319.31,105.2 323.56,107.18C321.38,110.69 319.09,114.13 316.96,117.66C322.22,119.78 327.54,121.75 332.82,123.84C329.1,128.89 325.48,134 321.76,139.04C326.18,141.97 330.62,144.88 335.05,147.81C331.56,151.49 328.12,155.21 324.71,158.95C328.67,161.86 332.69,164.69 336.57,167.72C332.47,171.03 328.36,174.33 324.32,177.72C327.53,181.3 330.82,184.83 333.9,188.53C329.18,191.54 324.53,194.66 319.91,197.83C323.58,201.77 327.11,205.83 330.72,209.83C324.95,212.82 319.02,215.5 313.33,218.64C314.94,222.82 316.36,227.08 317.98,231.26C313.5,232.92 308.97,234.49 304.46,236.09C304.79,242 305.3,247.89 305.86,253.78C301.05,254.24 296.22,254.52 291.43,255.12C291.24,259.46 291.31,263.8 291.3,268.15C286.7,269.07 282.02,269.63 277.44,270.65C275.38,274.9 275.52,280.08 274.24,284.68C270.52,282.99 266.82,281.28 263.07,279.69C261.71,284.74 260.54,289.84 259.21,294.89C255.46,293.32 251.68,291.84 247.89,290.38C245.82,294.59 243.95,298.9 241.94,303.14C237.52,301.58 233.12,299.97 228.71,298.37C226.62,302.09 224.75,305.92 222.82,309.73C218.54,307.41 214.33,304.98 210.07,302.64C207.39,306.48 204.8,310.38 202.14,314.24C199.11,311.57 196.04,308.94 192.99,306.28C191.13,309.4 189.31,312.55 187.52,315.71C184.74,312.49 182.22,309.07 179.39,305.9C177.38,308.93 175.39,311.96 173.43,315.01C171.42,312.23 169.55,309.35 167.69,306.46C164.24,308.65 161,311.14 157.58,313.37C156.93,309.97 156.24,306.58 155.52,303.2C164.68,303.74 173.91,304.95 183.07,303.75C191.07,303.23 199.02,302.08 206.92,300.74C218.4,297.58 229.65,293.61 240.37,288.39C243.74,286.83 247.35,285.63 250.28,283.27C258.15,277.18 266.36,271.46 273.58,264.59C278.28,259.27 282.67,253.69 287.3,248.32C292.02,242.86 295.45,236.47 299.52,230.55C303.75,224.82 305.6,217.85 308.52,211.44C311.63,204.91 312.69,197.7 314.58,190.77C315.7,185.9 317.49,181.07 317.2,176C317.01,166.63 317.78,157.27 317.76,147.91C316.84,140.43 316.01,132.85 313.37,125.74C310.35,117.13 308.89,107.85 304.1,99.95C298.63,90.11 293.47,80.07 287.38,70.6C278.21,58.4 265.83,49.13 253.62,40.18Z" style="fill:white;fill-rule:nonzero;"/>
        <path d="M183.34,42.32C189.02,37.47 196.71,36.19 203.89,35.29C212.09,34.27 220.09,36.91 227.72,39.59C228.13,45.11 225.53,50.15 224.11,55.33C222.84,59.55 221.7,64.22 218.15,67.15C213.36,71.35 207.46,74.16 201.43,76.09C195.68,76.85 189.84,76.53 184.08,77.2C181.78,77.17 180.68,79.47 179.31,80.92C181.14,84.82 184.56,87.62 186.71,91.29C187.57,95.31 186.53,99.69 188.34,103.53C191.46,107.92 197.4,105.65 201.74,104.92C204.51,103.07 208.35,100.81 208.22,97.01C208.01,92.92 201,92.17 201.81,87.84C205.95,87.54 208.3,91.85 212.02,92.97C216.25,91.18 219.66,87.89 223.19,85.03C224.59,83.92 226.41,85.49 226.55,87.01C223.28,89.73 219.72,92.11 216.69,95.09C216.87,96.48 217.65,97.2 219.06,97.26C222.75,98.25 227.05,95.92 230.11,99C227.06,103.17 221.57,97.56 217.88,101.03C220.4,103.38 223.8,104.41 226.44,106.58C227.46,107.48 228.68,109.11 227,110.04C222.96,108.6 218.93,104.43 214.42,106.6C209.5,108.09 205.1,111.13 199.92,111.78C194.9,112.21 190.21,114.63 185.08,114.2C182.9,112.35 182.09,109.39 179.88,107.54C179.09,112.98 178.94,119.58 183.45,123.53C190.28,130.49 197.65,137.99 207.42,140.44C214.45,142.7 220.65,146.99 226.03,151.98C236.86,162.04 244.87,174.82 250.56,188.39C251.47,190.52 251.86,192.82 252.32,195.08C255.83,193.11 259.74,191.06 263.82,191.13C269.36,192.91 268.61,200.11 271.81,203.97C276.56,200.16 278.79,194.01 278.99,188.06C278.88,185.91 280.51,184.45 282.49,184.08C286.22,189.18 280.28,194.48 281.14,199.95C286.81,198.35 290.79,193.62 294,188.95C295.12,187.15 297.19,187.59 298.91,188.07C298.94,189.26 298.85,190.43 298.64,191.6C295.48,196.39 290.43,199.36 286.12,202.98C286.58,203.4 287.51,204.23 287.98,204.65C292.84,203.35 298.04,200.96 303.06,202.96C303.97,203.75 305.14,205.62 303.61,206.47C300.3,209.27 296.28,204.87 292.61,206.57C290.8,207.11 286.75,208.14 288.21,210.66C291.81,213.13 296.43,213.45 300.06,215.94C301.71,216.64 301.66,218.63 302.08,220.1C298.52,220.83 295.82,217.97 292.49,217.34C287.37,215.97 282.21,214.61 277,213.62C273.45,214.68 270.32,218.91 266.34,216.69C263.08,215.91 262.68,210.8 259,211.2C256.36,211.46 254.28,213.58 252.74,215.59C252.09,221.25 252.67,227.03 251.41,232.62C249.57,241.79 244.66,249.89 239.7,257.66C238.27,259.85 236.64,261.93 234.55,263.52C225.76,270.35 217.5,277.83 208.92,284.92C204.19,287.68 198.7,288.77 193.52,290.4C186.83,292.26 179.79,291.45 172.96,292.23C164.98,293.09 157.02,291.6 149.05,291.27C145.68,290.97 142.13,291.45 138.96,290.02C130.94,286.67 123.41,282.27 115.66,278.36C111.19,275.96 106.48,273.72 102.75,270.23C100.38,266.77 98.56,262.86 97.24,258.89C98.01,252 97.58,244.11 102.69,238.69C107.01,234.46 113.69,233.35 119.44,234.67C123.31,235.67 126.49,239.63 125.62,243.73C125.02,246.49 122.24,247.81 120.12,249.27C120.43,246.89 122.79,243.72 120.12,241.92C114.61,238.74 107.24,243.11 106.12,249.04C104.77,254.28 106.49,259.96 110.11,263.89C115.12,269.37 122.18,272.52 129.39,273.85C139.21,275.84 148.85,279.78 159.04,279.06C168.59,278.69 177.84,275.59 186.34,271.36C193.21,268.77 198.58,263.61 204.55,259.52C210.35,254.42 216.37,249.21 220.33,242.49C222.42,236.17 220.46,229.35 219.91,222.9C213.15,223.57 211.3,231.78 205.03,233.32C202.25,232.56 199.85,230.52 196.95,230.28C191.52,231.43 185.6,231.07 180.92,234.55C179.7,233.97 178.06,233.74 177.84,232.13C181.48,228.4 188.05,230.18 190.71,225.1C184.63,222.36 178.02,220.37 171.31,220.34C168.98,218.66 171.8,215.84 174,216.38C179.6,216.9 185.11,218.29 190.79,218.21C188.33,214.13 185.17,210.17 180.69,208.24C178.23,207.06 176.42,204.69 176.59,201.87C177.8,201.81 179.33,200.62 180.4,201.6C183.78,204.55 187.74,206.92 190.45,210.57C191.85,212.35 193.8,213.56 195.69,214.76C196.02,209.48 193.49,204.59 193.54,199.35C194.31,199.59 195.86,200.07 196.63,200.31C198.98,205.09 199.72,210.47 200.24,215.72C200.42,217.64 202.65,218.01 204.07,218.7C204.57,214.75 203.59,210.45 205.89,206.9C206.88,203.8 210.46,203.49 213.07,202.51C209,197.04 202.42,194.54 196.56,191.52C191.84,189.48 189.37,184.41 184.71,182.29C178.53,179.31 172.17,176.72 165.8,174.19C161.79,171.6 158.14,168.51 154.28,165.72C147.16,160.28 139.29,155.13 134.86,147.09C131.12,140.67 126.34,134.52 125.22,126.97C122.32,116.82 123.9,106.22 125.86,96.06C121.44,94.93 116.06,96.02 112.67,92.35C109.34,85.75 114.13,79.17 115.56,72.78C111.75,72.88 107.44,77.32 104.19,73.72C104.11,72.63 104.56,71.89 105.55,71.49C108.33,70.32 111.49,69.94 113.8,67.83C113.73,67.56 113.59,67.01 113.53,66.74C109.61,64.85 105.04,65.06 101.2,63.15C101.48,61.63 102.6,60.25 104.28,60.4C107.57,60.11 110.03,62.69 113.04,63.5C114.93,63.71 115.77,62.89 115.57,61.05C114.14,57.09 109.53,54.5 110.08,49.9C111.44,50 113.39,49.21 114.25,50.7C116.66,53.87 117.13,58.61 121.22,60.29C122.17,56.34 120.79,52.32 121.43,48.36C121.61,46.53 123.74,46.44 125.08,45.97C126.56,51.22 124.21,56.61 124.81,61.96C128.48,62.02 131.55,59.07 135.24,59.85C134.94,60.43 134.34,61.59 134.04,62.16C130.85,63.48 127.76,65.06 125.02,67.18C122.51,73.05 122.75,79.65 122.19,85.9C125.99,85.04 129.75,83.91 133.28,82.24C136.84,80.21 139.52,76.92 143.2,75.07C148.86,73.29 155.62,76.64 160.66,72.73C162.79,71.2 164.78,69.42 166.37,67.33C168.26,63.37 168.63,58.78 171.05,55.04C174.2,50 178.74,46.01 183.34,42.32Z" style="fill:white;fill-rule:nonzero;"/>
        <path d="M47.2,221.42C49.32,225.93 52.47,230.19 53.83,234.89C50.24,235.82 46.52,233.53 42.87,233.12C44.36,229.24 45.68,225.29 47.2,221.42Z" style="fill:white;fill-rule:nonzero;"/>
        <path d="M50.31,245.92C51.94,242.96 52.55,239.3 54.76,236.75L55.44,236.65C57.43,239.87 59.3,243.17 61.3,246.39C57.64,246.27 53.97,246.09 50.31,245.92Z" style="fill:white;fill-rule:nonzero;"/>
        <path d="M59.07,256.99C60.18,254.07 61.28,251.15 62.55,248.3C64.78,251.15 67.05,253.96 69.36,256.74L68.93,257.24C65.66,257.79 62.35,257.14 59.07,256.99Z" style="fill:white;fill-rule:nonzero;"/>
        <path d="M70.1,259.11C70.39,259.13 70.97,259.15 71.26,259.17C73.77,261.99 76.21,264.88 78.66,267.77C75.7,268.2 72.73,268.6 69.77,269C69.94,265.73 68.93,262.25 70.1,259.11Z" style="fill:white;fill-rule:nonzero;"/>
        <path d="M78.99,268.25C82.28,270.42 85.52,272.67 88.78,274.89C85.08,276.04 81.26,276.7 77.44,277.35C77.95,274.31 78.5,271.28 78.99,268.25Z" style="fill:white;fill-rule:nonzero;"/>
        <path d="M88.27,284.28C88.54,281.25 87.45,277.71 89.87,275.32C92.39,277.84 95.11,280.17 98.05,282.2C94.8,282.95 91.53,283.6 88.27,284.28Z" style="fill:white;fill-rule:nonzero;"/>
        <path d="M126.19,294.78C127.66,295.84 130.12,295.99 130.88,297.78C128.19,299.13 125.32,300.07 122.48,301.04C123.67,298.92 124.95,296.86 126.19,294.78Z" style="fill:white;fill-rule:nonzero;"/>
        <path d="M131.9,298.18C135.34,298.8 138.67,300.71 142.27,301.15C139.66,303.33 136.96,305.4 134.19,307.38C133.42,304.33 132.08,301.36 131.9,298.18Z" style="fill:white;fill-rule:nonzero;"/>
        <path d="M142.94,301.3C146.98,302.16 151.08,302.72 155.16,303.34C152.16,306.26 149.2,309.21 146.18,312.11C145.11,308.51 144.07,304.89 142.94,301.3Z" style="fill:white;fill-rule:nonzero;"/>
    </g>
</svg>
