<?xml version="1.0" encoding="UTF-8" standalone="no"?><!DOCTYPE svg PUBLIC "-//W3C//DTD SVG 1.1//EN" "http://www.w3.org/Graphics/SVG/1.1/DTD/svg11.dtd"><svg width="100%" height="100%" viewBox="0 0 348 336" version="1.1" xmlns="http://www.w3.org/2000/svg" xmlns:xlink="http://www.w3.org/1999/xlink" xml:space="preserve" xmlns:serif="http://www.serif.com/" style="fill-rule:evenodd;clip-rule:evenodd;stroke-linejoin:round;stroke-miterlimit:1.41421;"><g id="_-000000ff" serif:id="#000000ff"><path d="M165.32,0l1.27,0c9.19,3.18 18.95,0.8 28.39,1.63c14.66,2.36 29.43,5.48 42.77,12.25c-2.19,4.87 -4.12,9.87 -6.46,14.67c-1.16,-5.28 -1.97,-10.63 -3.06,-15.93c-4.1,2.82 -8.05,5.86 -12.11,8.72c-1.73,-4.31 -3.37,-8.65 -5.13,-12.95c-3.52,3.2 -6.97,6.47 -10.45,9.72c-2.62,-4.09 -5.09,-8.28 -7.64,-12.42c-3.1,3.69 -6.09,7.48 -9.14,11.23c-2.95,-3.71 -5.92,-7.41 -8.86,-11.13c-2.53,3.57 -4.95,7.21 -7.59,10.7c-3.28,-3.45 -6.57,-6.89 -9.91,-10.27c-2.11,4.04 -4.16,8.1 -6.26,12.14c-4.11,-2.29 -8.2,-4.6 -12.3,-6.89c-1.6,3.78 -3.08,7.62 -4.61,11.43c-4.78,-3.12 -9.56,-6.23 -14.37,-9.3c-2.09,6.03 -4.01,12.12 -6.04,18.17c-4.98,-1.9 -9.97,-3.78 -14.97,-5.63c-1.09,4.96 -2.03,9.94 -3.07,14.91c-4.73,-1.5 -9.45,-3.04 -14.17,-4.58c-0.48,5.39 -0.7,10.8 -0.99,16.2c-4.82,-0.53 -9.66,-1 -14.49,-1.43c0.09,5.59 0.44,11.17 0.58,16.75c-5.44,-0.56 -10.87,-1.19 -16.32,-1.62c1.02,6.56 2.17,13.09 3.23,19.65c-4.39,1.3 -8.8,2.55 -13.19,3.89c1.34,4.69 2.73,9.37 4.1,14.06c-5.12,3.17 -10.29,6.26 -15.41,9.43c2.47,4.17 5.03,8.29 7.5,12.47c-3.52,2.58 -7.06,5.15 -10.52,7.81c2.22,4.38 4.36,8.79 6.51,13.2c-3.44,3.64 -6.87,7.29 -10.3,10.94c3.56,2.08 7.13,4.13 10.72,6.17c-3.34,3.99 -6.71,7.95 -10.03,11.96c3.52,2.24 7.04,4.48 10.54,6.76c-2.33,4.05 -4.63,8.12 -6.88,12.21c3.9,2.69 7.84,5.31 11.74,8c-1.97,3.81 -3.9,7.64 -5.91,11.43c4.31,2.44 9.11,3.92 13.29,6.59c-1.47,4.44 -3.23,8.78 -4.76,13.2c3.9,0.95 7.81,1.83 11.71,2.78c-1.54,3.43 -3.07,6.87 -4.6,10.31c4.3,0.2 8.6,0.43 12.91,0.69c-1.35,3.44 -2.67,6.88 -3.96,10.33c3.67,0.33 7.34,0.57 11.02,0.84c0.1,3.82 0.1,7.64 0.09,11.47c3.05,-0.31 6.09,-0.71 9.13,-1.09c-0.53,3.2 -1.11,6.39 -1.62,9.59c3.76,-0.55 7.5,-1.28 11.24,-2.03c-0.04,3 -0.09,6.01 -0.14,9.01c3.95,-0.77 7.88,-1.66 11.83,-2.4c-2.11,5.05 -4.31,10.07 -6.46,15.1c-2.6,-1.03 -5.22,-2.04 -7.83,-3.07c-5.54,-2 -10,-5.99 -14.93,-9.09c-7.02,-4.96 -14.5,-9.33 -20.87,-15.15c-3.29,-3.02 -7.02,-5.59 -10.02,-8.92c-2.2,-3.15 -3.89,-6.66 -6.54,-9.47c-11.09,-12.34 -17.94,-27.72 -24.19,-42.9c-2.38,-5.11 -2.42,-10.84 -3.35,-16.3c-0.69,-6.27 -2.45,-12.51 -1.64,-18.85c1.04,-9.68 0.86,-19.52 3,-29.06c1.63,-7.97 2.69,-16.11 5.59,-23.76c4.86,-15.55 10.42,-30.9 17.03,-45.8c6.34,-10.99 12.43,-22.41 21.58,-31.37c10.35,-9.32 22.32,-16.53 34.04,-23.94c12.85,-5.66 26.16,-10.27 39.64,-14.2c7.29,-2.19 14.68,-4.28 22.27,-5.1c6.48,-0.13 13.03,-0.18 19.37,-1.76Z" style="fill-rule:nonzero;"/><path d="M151.74,20.31c2.04,-3.9 4,-7.85 6.04,-11.75c3.23,3.37 6.47,6.72 9.7,10.1c2.66,-3.38 5,-7 7.48,-10.52c2.96,3.67 5.84,7.4 8.86,11.01c2.94,-3.69 5.88,-7.39 8.9,-11.02c2.5,4.03 4.91,8.12 7.42,12.14c3.54,-3.04 6.83,-6.36 10.33,-9.46c1.66,4.27 3.23,8.58 5.08,12.77c3.9,-2.86 7.79,-5.72 11.67,-8.61c0.97,4.93 1.78,9.88 2.79,14.8c-14.59,-4.58 -29.55,-9.23 -44.99,-9.14c-12.94,1.1 -25.86,2.69 -38.7,4.65c-9.05,2.84 -18.02,5.96 -26.97,9.1c-6.08,3.1 -12.55,5.71 -17.81,10.16c-6.17,4.84 -12.33,9.71 -18.73,14.25c-4.21,2.75 -6.91,7.09 -10.23,10.75c-4.34,5.38 -9.35,10.28 -12.71,16.38c-3.5,6.18 -8.1,11.82 -10.33,18.65c-2.54,7.17 -5.94,14.06 -7.54,21.53c-1.59,6.65 -3.5,13.21 -4.94,19.89c-1.19,10.62 -1.31,21.34 -1.36,32.02c1.19,7.04 2.88,14 4.28,21c1.68,6.86 4.29,13.44 6.3,20.2c-3.99,-1.68 -7.9,-3.56 -11.83,-5.37c1.88,-3.82 3.88,-7.58 5.74,-11.42c-3.91,-2.68 -7.87,-5.28 -11.71,-8.06c2.39,-4.01 4.7,-8.07 6.88,-12.2c-3.41,-2.22 -6.89,-4.34 -10.26,-6.62c3.36,-3.97 6.8,-7.87 9.99,-11.98c-3.48,-2.05 -7,-4.03 -10.52,-6.01c3.16,-3.59 6.57,-6.94 9.76,-10.5c-2.19,-4.32 -4.28,-8.69 -6.45,-13.02c3.57,-2.59 7.12,-5.2 10.63,-7.87c-2.51,-4.09 -4.96,-8.2 -7.49,-12.27c5.05,-3.1 10.13,-6.16 15.17,-9.26c-1.29,-4.6 -2.63,-9.19 -4.05,-13.75c4.38,-1.31 8.8,-2.5 13.14,-3.92c-1.1,-6.33 -2.14,-12.68 -3.2,-19.02c5.38,0.48 10.73,1.17 16.11,1.6c-0.1,-5.57 -0.4,-11.13 -0.59,-16.69c4.75,0.37 9.49,0.94 14.25,1.31c0.47,-5.24 0.65,-10.5 1.04,-15.74c4.65,1.47 9.27,3.03 13.94,4.46c1.14,-4.93 2.02,-9.9 3.09,-14.84c4.94,1.86 9.84,3.83 14.84,5.52c1.92,-5.91 3.93,-11.79 5.77,-17.73c4.91,2.88 9.55,6.17 14.41,9.12c1.54,-3.83 3.03,-7.68 4.64,-11.49c4.03,2.33 8.08,4.62 12.16,6.85Z" style="fill-rule:nonzero;"/><path d="M259.88,30.16c0.72,-1.82 1.81,-3.47 2.8,-5.15c13.42,7.03 24.85,17.18 35.41,27.92c4.62,5.46 7.83,12 12.73,17.23c3.13,2.96 5.96,6.25 7.87,10.15c3.05,6.13 8.02,11.11 10.56,17.51c7.02,16.17 12.2,33.1 16.55,50.17c2.24,7.66 1.53,15.72 2.2,23.58l0,14.91c0.1,8.99 -1.73,17.98 -5.36,26.21c-2.47,6.65 -5.27,13.18 -8.43,19.52c-9.61,16.06 -20.26,31.49 -31.68,46.31c-5.46,5.86 -10.79,11.86 -16.54,17.44c-6.53,5.48 -12.93,11.14 -19.59,16.45c-6.28,3.85 -13.03,6.89 -19.44,10.52c-5.36,3.2 -11.68,3.83 -17.59,5.44c-9.37,1.88 -18.82,3.65 -28.41,3.88c-6.67,0.5 -13.32,-1.27 -19.98,-0.34c-4.67,0.67 -9.14,-1.21 -13.64,-2.12c-11.97,-2.41 -23.16,-7.46 -34.7,-11.33c-5.74,-1.69 -10.49,-5.41 -15.51,-8.51c1.35,-2.23 2.5,-4.61 4.18,-6.62c2.85,-1.68 6.12,-2.48 9.21,-3.61c0.93,3.38 1.88,6.76 2.87,10.14c2.9,-2.2 5.77,-4.43 8.65,-6.64c1.16,3.84 2.25,7.72 3.47,11.55c3.06,-2.95 6.05,-5.96 9.13,-8.9c0.65,3.33 1.31,6.65 2.05,9.96c3.5,-2.49 7.01,-4.96 10.52,-7.44c2.05,3.04 4.07,6.1 6.14,9.14c2.13,-3.07 4.16,-6.22 6.26,-9.3c2.67,3.32 5.31,6.67 8.07,9.91c1.91,-3.21 3.79,-6.44 5.66,-9.68c3.03,2.61 6.04,5.26 9.12,7.82c2.7,-3.93 5.33,-7.92 8.14,-11.78c4.22,2.44 8.49,4.78 12.71,7.21c2.08,-3.82 4.02,-7.72 6,-11.59c4.45,1.62 8.9,3.25 13.38,4.8c1.99,-4.24 3.92,-8.51 5.91,-12.76c3.86,1.55 7.72,3.1 11.6,4.58c1.35,-5 2.54,-10.05 3.85,-15.06c3.75,1.64 7.47,3.34 11.21,5.02c1.06,-4.89 1.93,-9.82 2.88,-14.73c4.85,-0.94 9.72,-1.71 14.58,-2.59c0.14,-4.36 0.08,-8.71 0.13,-13.07c4.83,-0.34 9.65,-0.76 14.46,-1.21c-0.36,-6.01 -0.98,-11.99 -1.36,-18c4.61,-1.65 9.23,-3.26 13.82,-4.97c-1.56,-4.31 -3.11,-8.62 -4.66,-12.93c5.99,-2.95 12,-5.89 17.93,-8.97c-3.73,-4.01 -7.31,-8.16 -11.03,-12.18c4.68,-3.08 9.33,-6.21 13.99,-9.32c-3.16,-3.68 -6.43,-7.25 -9.64,-10.87c4.14,-3.45 8.34,-6.83 12.5,-10.26c-3.96,-3.01 -8.01,-5.91 -12.04,-8.83c3.41,-3.78 6.9,-7.48 10.31,-11.25c-4.43,-2.97 -8.88,-5.89 -13.33,-8.83c3.7,-5.19 7.52,-10.31 11.19,-15.53c-5.31,-2.09 -10.64,-4.15 -15.97,-6.19c2.19,-3.45 4.37,-6.9 6.6,-10.32c-4.24,-2.08 -8.54,-4.01 -12.83,-5.99c2.02,-4.08 4.12,-8.13 6.2,-12.19c-4.74,-0.75 -9.49,-1.4 -14.24,-2.03c1.38,-4.1 2.86,-8.17 4.24,-12.27c-4.72,-0.39 -9.45,-0.52 -14.17,-0.76c1.24,-4.65 2.55,-9.28 3.78,-13.92c-4.85,0.27 -9.68,0.72 -14.52,1.08c0.86,-3.69 1.67,-7.4 2.46,-11.11c-4.71,0.11 -9.41,0.39 -14.11,0.52c0.87,-3.93 1.8,-7.84 2.66,-11.78c-4.75,0.81 -9.45,1.8 -14.17,2.72c-0.34,-3.59 -1.07,-7.15 -1.04,-10.76Z" style="fill-rule:nonzero;"/><path d="M253.62,40.18c1.61,-2.61 3.09,-5.3 4.82,-7.83c0.53,3.41 0.76,6.86 1.24,10.28c4.51,-0.86 9.01,-1.81 13.53,-2.64c-0.83,3.84 -1.78,7.65 -2.6,11.49c4.72,-0.11 9.43,-0.41 14.16,-0.49c-0.85,3.72 -1.69,7.44 -2.38,11.19c4.76,-0.34 9.51,-0.79 14.27,-1.18c-1.16,4.58 -2.46,9.12 -3.68,13.68c4.7,0.36 9.42,0.5 14.13,0.7c-1.47,4.04 -2.87,8.11 -4.3,12.16c4.67,0.76 9.36,1.36 14.05,2.03c-2.05,3.88 -3.99,7.81 -6.05,11.68c4.2,2.08 8.5,3.95 12.75,5.93c-2.18,3.51 -4.47,6.95 -6.6,10.48c5.26,2.12 10.58,4.09 15.86,6.18c-3.72,5.05 -7.34,10.16 -11.06,15.2c4.42,2.93 8.86,5.84 13.29,8.77c-3.49,3.68 -6.93,7.4 -10.34,11.14c3.96,2.91 7.98,5.74 11.86,8.77c-4.1,3.31 -8.21,6.61 -12.25,10c3.21,3.58 6.5,7.11 9.58,10.81c-4.72,3.01 -9.37,6.13 -13.99,9.3c3.67,3.94 7.2,8 10.81,12c-5.77,2.99 -11.7,5.67 -17.39,8.81c1.61,4.18 3.03,8.44 4.65,12.62c-4.48,1.66 -9.01,3.23 -13.52,4.83c0.33,5.91 0.84,11.8 1.4,17.69c-4.81,0.46 -9.64,0.74 -14.43,1.34c-0.19,4.34 -0.12,8.68 -0.13,13.03c-4.6,0.92 -9.28,1.48 -13.86,2.5c-2.06,4.25 -1.92,9.43 -3.2,14.03c-3.72,-1.69 -7.42,-3.4 -11.17,-4.99c-1.36,5.05 -2.53,10.15 -3.86,15.2c-3.75,-1.57 -7.53,-3.05 -11.32,-4.51c-2.07,4.21 -3.94,8.52 -5.95,12.76c-4.42,-1.56 -8.82,-3.17 -13.23,-4.77c-2.09,3.72 -3.96,7.55 -5.89,11.36c-4.28,-2.32 -8.49,-4.75 -12.75,-7.09c-2.68,3.84 -5.27,7.74 -7.93,11.6c-3.03,-2.67 -6.1,-5.3 -9.15,-7.96c-1.86,3.12 -3.68,6.27 -5.47,9.43c-2.78,-3.22 -5.3,-6.64 -8.13,-9.81c-2.01,3.03 -4,6.06 -5.96,9.11c-2.01,-2.78 -3.88,-5.66 -5.74,-8.55c-3.45,2.19 -6.69,4.68 -10.11,6.91c-0.65,-3.4 -1.34,-6.79 -2.06,-10.17c9.16,0.54 18.39,1.75 27.55,0.55c8,-0.52 15.95,-1.67 23.85,-3.01c11.48,-3.16 22.73,-7.13 33.45,-12.35c3.37,-1.56 6.98,-2.76 9.91,-5.12c7.87,-6.09 16.08,-11.81 23.3,-18.68c4.7,-5.32 9.09,-10.9 13.72,-16.27c4.72,-5.46 8.15,-11.85 12.22,-17.77c4.23,-5.73 6.08,-12.7 9,-19.11c3.11,-6.53 4.17,-13.74 6.06,-20.67c1.12,-4.87 2.91,-9.7 2.62,-14.77c-0.19,-9.37 0.58,-18.73 0.56,-28.09c-0.92,-7.48 -1.75,-15.06 -4.39,-22.17c-3.02,-8.61 -4.48,-17.89 -9.27,-25.79c-5.47,-9.84 -10.63,-19.88 -16.72,-29.35c-9.17,-12.2 -21.55,-21.47 -33.76,-30.42Z" style="fill-rule:nonzero;"/><path d="M183.34,42.32c5.68,-4.85 13.37,-6.13 20.55,-7.03c8.2,-1.02 16.2,1.62 23.83,4.3c0.41,5.52 -2.19,10.56 -3.61,15.74c-1.27,4.22 -2.41,8.89 -5.96,11.82c-4.79,4.2 -10.69,7.01 -16.72,8.94c-5.75,0.76 -11.59,0.44 -17.35,1.11c-2.3,-0.03 -3.4,2.27 -4.77,3.72c1.83,3.9 5.25,6.7 7.4,10.37c0.86,4.02 -0.18,8.4 1.63,12.24c3.12,4.39 9.06,2.12 13.4,1.39c2.77,-1.85 6.61,-4.11 6.48,-7.91c-0.21,-4.09 -7.22,-4.84 -6.41,-9.17c4.14,-0.3 6.49,4.01 10.21,5.13c4.23,-1.79 7.64,-5.08 11.17,-7.94c1.4,-1.11 3.22,0.46 3.36,1.98c-3.27,2.72 -6.83,5.1 -9.86,8.08c0.18,1.39 0.96,2.11 2.37,2.17c3.69,0.99 7.99,-1.34 11.05,1.74c-3.05,4.17 -8.54,-1.44 -12.23,2.03c2.52,2.35 5.92,3.38 8.56,5.55c1.02,0.9 2.24,2.53 0.56,3.46c-4.04,-1.44 -8.07,-5.61 -12.58,-3.44c-4.92,1.49 -9.32,4.53 -14.5,5.18c-5.02,0.43 -9.71,2.85 -14.84,2.42c-2.18,-1.85 -2.99,-4.81 -5.2,-6.66c-0.79,5.44 -0.94,12.04 3.57,15.99c6.83,6.96 14.2,14.46 23.97,16.91c7.03,2.26 13.23,6.55 18.61,11.54c10.83,10.06 18.84,22.84 24.53,36.41c0.91,2.13 1.3,4.43 1.76,6.69c3.51,-1.97 7.42,-4.02 11.5,-3.95c5.54,1.78 4.79,8.98 7.99,12.84c4.75,-3.81 6.98,-9.96 7.18,-15.91c-0.11,-2.15 1.52,-3.61 3.5,-3.98c3.73,5.1 -2.21,10.4 -1.35,15.87c5.67,-1.6 9.65,-6.33 12.86,-11c1.12,-1.8 3.19,-1.36 4.91,-0.88c0.03,1.19 -0.06,2.36 -0.27,3.53c-3.16,4.79 -8.21,7.76 -12.52,11.38c0.46,0.42 1.39,1.25 1.86,1.67c4.86,-1.3 10.06,-3.69 15.08,-1.69c0.91,0.79 2.08,2.66 0.55,3.51c-3.31,2.8 -7.33,-1.6 -11,0.1c-1.81,0.54 -5.86,1.57 -4.4,4.09c3.6,2.47 8.22,2.79 11.85,5.28c1.65,0.7 1.6,2.69 2.02,4.16c-3.56,0.73 -6.26,-2.13 -9.59,-2.76c-5.12,-1.37 -10.28,-2.73 -15.49,-3.72c-3.55,1.06 -6.68,5.29 -10.66,3.07c-3.26,-0.78 -3.66,-5.89 -7.34,-5.49c-2.64,0.26 -4.72,2.38 -6.26,4.39c-0.65,5.66 -0.07,11.44 -1.33,17.03c-1.84,9.17 -6.75,17.27 -11.71,25.04c-1.43,2.19 -3.06,4.27 -5.15,5.86c-8.79,6.83 -17.05,14.31 -25.63,21.4c-4.73,2.76 -10.22,3.85 -15.4,5.48c-6.69,1.86 -13.73,1.05 -20.56,1.83c-7.98,0.86 -15.94,-0.63 -23.91,-0.96c-3.37,-0.3 -6.92,0.18 -10.09,-1.25c-8.02,-3.35 -15.55,-7.75 -23.3,-11.66c-4.47,-2.4 -9.18,-4.64 -12.91,-8.13c-2.37,-3.46 -4.19,-7.37 -5.51,-11.34c0.77,-6.89 0.34,-14.78 5.45,-20.2c4.32,-4.23 11,-5.34 16.75,-4.02c3.87,1 7.05,4.96 6.18,9.06c-0.6,2.76 -3.38,4.08 -5.5,5.54c0.31,-2.38 2.67,-5.55 0,-7.35c-5.51,-3.18 -12.88,1.19 -14,7.12c-1.35,5.24 0.37,10.92 3.99,14.85c5.01,5.48 12.07,8.63 19.28,9.96c9.82,1.99 19.46,5.93 29.65,5.21c9.55,-0.37 18.8,-3.47 27.3,-7.7c6.87,-2.59 12.24,-7.75 18.21,-11.84c5.8,-5.1 11.82,-10.31 15.78,-17.03c2.09,-6.32 0.13,-13.14 -0.42,-19.59c-6.76,0.67 -8.61,8.88 -14.88,10.42c-2.78,-0.76 -5.18,-2.8 -8.08,-3.04c-5.43,1.15 -11.35,0.79 -16.03,4.27c-1.22,-0.58 -2.86,-0.81 -3.08,-2.42c3.64,-3.73 10.21,-1.95 12.87,-7.03c-6.08,-2.74 -12.69,-4.73 -19.4,-4.76c-2.33,-1.68 0.49,-4.5 2.69,-3.96c5.6,0.52 11.11,1.91 16.79,1.83c-2.46,-4.08 -5.62,-8.04 -10.1,-9.97c-2.46,-1.18 -4.27,-3.55 -4.1,-6.37c1.21,-0.06 2.74,-1.25 3.81,-0.27c3.38,2.95 7.34,5.32 10.05,8.97c1.4,1.78 3.35,2.99 5.24,4.19c0.33,-5.28 -2.2,-10.17 -2.15,-15.41c0.77,0.24 2.32,0.72 3.09,0.96c2.35,4.78 3.09,10.16 3.61,15.41c0.18,1.92 2.41,2.29 3.83,2.98c0.5,-3.95 -0.48,-8.25 1.82,-11.8c0.99,-3.1 4.57,-3.41 7.18,-4.39c-4.07,-5.47 -10.65,-7.97 -16.51,-10.99c-4.72,-2.04 -7.19,-7.11 -11.85,-9.23c-6.18,-2.98 -12.54,-5.57 -18.91,-8.1c-4.01,-2.59 -7.66,-5.68 -11.52,-8.47c-7.12,-5.44 -14.99,-10.59 -19.42,-18.63c-3.74,-6.42 -8.52,-12.57 -9.64,-20.12c-2.9,-10.15 -1.32,-20.75 0.64,-30.91c-4.42,-1.13 -9.8,-0.04 -13.19,-3.71c-3.33,-6.6 1.46,-13.18 2.89,-19.57c-3.81,0.1 -8.12,4.54 -11.37,0.94c-0.08,-1.09 0.37,-1.83 1.36,-2.23c2.78,-1.17 5.94,-1.55 8.25,-3.66c-0.07,-0.27 -0.21,-0.82 -0.27,-1.09c-3.92,-1.89 -8.49,-1.68 -12.33,-3.59c0.28,-1.52 1.4,-2.9 3.08,-2.75c3.29,-0.29 5.75,2.29 8.76,3.1c1.89,0.21 2.73,-0.61 2.53,-2.45c-1.43,-3.96 -6.04,-6.55 -5.49,-11.15c1.36,0.1 3.31,-0.69 4.17,0.8c2.41,3.17 2.88,7.91 6.97,9.59c0.95,-3.95 -0.43,-7.97 0.21,-11.93c0.18,-1.83 2.31,-1.92 3.65,-2.39c1.48,5.25 -0.87,10.64 -0.27,15.99c3.67,0.06 6.74,-2.89 10.43,-2.11c-0.3,0.58 -0.9,1.74 -1.2,2.31c-3.19,1.32 -6.28,2.9 -9.02,5.02c-2.51,5.87 -2.27,12.47 -2.83,18.72c3.8,-0.86 7.56,-1.99 11.09,-3.66c3.56,-2.03 6.24,-5.32 9.92,-7.17c5.66,-1.78 12.42,1.57 17.46,-2.34c2.13,-1.53 4.12,-3.31 5.71,-5.4c1.89,-3.96 2.26,-8.55 4.68,-12.29c3.15,-5.04 7.69,-9.03 12.29,-12.72Z" style="fill-rule:nonzero;"/><path d="M47.2,221.42c2.12,4.51 5.27,8.77 6.63,13.47c-3.59,0.93 -7.31,-1.36 -10.96,-1.77c1.49,-3.88 2.81,-7.83 4.33,-11.7Z" style="fill-rule:nonzero;"/><path d="M50.31,245.92c1.63,-2.96 2.24,-6.62 4.45,-9.17l0.68,-0.1c1.99,3.22 3.86,6.52 5.86,9.74c-3.66,-0.12 -7.33,-0.3 -10.99,-0.47Z" style="fill-rule:nonzero;"/><path d="M59.07,256.99c1.11,-2.92 2.21,-5.84 3.48,-8.69c2.23,2.85 4.5,5.66 6.81,8.44l-0.43,0.5c-3.27,0.55 -6.58,-0.1 -9.86,-0.25Z" style="fill-rule:nonzero;"/><path d="M70.1,259.11c0.29,0.02 0.87,0.04 1.16,0.06c2.51,2.82 4.95,5.71 7.4,8.6c-2.96,0.43 -5.93,0.83 -8.89,1.23c0.17,-3.27 -0.84,-6.75 0.33,-9.89Z" style="fill-rule:nonzero;"/><path d="M78.99,268.25c3.29,2.17 6.53,4.42 9.79,6.64c-3.7,1.15 -7.52,1.81 -11.34,2.46c0.51,-3.04 1.06,-6.07 1.55,-9.1Z" style="fill-rule:nonzero;"/><path d="M88.27,284.28c0.27,-3.03 -0.82,-6.57 1.6,-8.96c2.52,2.52 5.24,4.85 8.18,6.88c-3.25,0.75 -6.52,1.4 -9.78,2.08Z" style="fill-rule:nonzero;"/><path d="M126.19,294.78c1.47,1.06 3.93,1.21 4.69,3c-2.69,1.35 -5.56,2.29 -8.4,3.26c1.19,-2.12 2.47,-4.18 3.71,-6.26Z" style="fill-rule:nonzero;"/><path d="M131.9,298.18c3.44,0.62 6.77,2.53 10.37,2.97c-2.61,2.18 -5.31,4.25 -8.08,6.23c-0.77,-3.05 -2.11,-6.02 -2.29,-9.2Z" style="fill-rule:nonzero;"/><path d="M142.94,301.3c4.04,0.86 8.14,1.42 12.22,2.04c-3,2.92 -5.96,5.87 -8.98,8.77c-1.07,-3.6 -2.11,-7.22 -3.24,-10.81Z" style="fill-rule:nonzero;"/></g></svg>